<?xml version="1.0" encoding="utf-8"?>
<!-- Generator: Adobe Illustrator 27.5.0, SVG Export Plug-In . SVG Version: 6.00 Build 0)  -->
<svg version="1.1" id="Layer_1" xmlns="http://www.w3.org/2000/svg" xmlns:xlink="http://www.w3.org/1999/xlink" x="0px" y="0px"
	 viewBox="0 0 30 21" style="enable-background:new 0 0 30 21;" xml:space="preserve">
<g>
	<rect style="fill:#FFFFFF;" width="30" height="21"/>
	<g>
		<path style="fill:#44A9E1;" d="M19.308,11.037c0.998,0.615,2.16,1.018,4.292,0.047c1.333-0.607,2.426-1.115,3.374-1.484
			C24.073,9.409,21.649,10.742,19.308,11.037z"/>
		<path style="fill:#44A9E1;" d="M14.253,10.2c-4.674,2.084-7.074-3.158-9.158-0.253c-0.117,0.163-0.255,0.31-0.401,0.45
			c0.664,0.145,1.363,0.379,2.106,0.75c6.442,3.221,6.316-0.884,10.737-0.126c0.589,0.101,1.177,0.091,1.771,0.016
			C17.971,10.213,16.929,9.007,14.253,10.2z"/>
		<path style="fill:#44A9E1;" d="M26.974,9.6c0.952,0.063,1.957,0.295,3.026,0.778V8.992C29.118,8.906,28.162,9.139,26.974,9.6z"/>
		<path style="fill:#1F4D8E;" d="M24.358,13.232c-2.147-1.453-2.653,1.389-5.116,0.063c-0.755-0.407-1.379-0.402-1.939-0.231
			c2.83,0.987,5.145,2.732,7.623,0.989c1.874-1.318,3.675-1.313,5.074-0.935v-0.611C25.542,10.929,26.398,14.612,24.358,13.232z"/>
		<path style="fill:#80E6F9;" d="M6.295,6.411C5.537,6.49,4.86,6.602,4.223,6.729c0.263,0.116,0.526,0.233,0.809,0.376
			c4.455,2.252,5.608,0.908,8.356,0.347C11.616,6.675,9.663,6.057,6.295,6.411z"/>
		<g>
			<path style="fill:#32629E;" d="M0.286,13.694c1.669-0.113,3.445,0.283,5.394,0.389c-0.111-0.054-0.218-0.096-0.332-0.157
				C3.421,12.893,1.656,13.12,0.286,13.694z"/>
		</g>
		<path style="fill:#1F4D8E;" d="M11.158,13.168c-1.985,0.88-3.796,1.007-5.479,0.915c4.129,1.995,6.162-1.078,8.068-0.094
			c1.357,0.701,2.291-0.54,3.556-0.926C15.517,12.441,13.528,12.118,11.158,13.168z"/>
		<path style="fill:#122E69;" d="M24.926,14.053c-2.478,1.743-4.793-0.002-7.623-0.989c-1.265,0.386-2.198,1.626-3.556,0.926
			c-1.907-0.984-3.939,2.089-8.068,0.094c-1.949-0.107-3.725-0.502-5.394-0.389C0.187,13.735,0.094,13.781,0,13.826v1.182
			c1.79-0.602,4.193-0.904,6.737,0.244c5.179,2.337,7.705-2.653,12.379-0.316c4.227,2.114,7.73-2.109,10.884-1.116v-0.703
			C28.601,12.739,26.801,12.735,24.926,14.053z"/>
		<g>
			<path style="fill:#32629E;" d="M0,13.724v0.102c0.094-0.045,0.187-0.091,0.286-0.132C0.19,13.7,0.095,13.714,0,13.724z"/>
		</g>
		<path style="fill:#2F76B6;" d="M5.347,13.926c0.114,0.061,0.221,0.104,0.332,0.157c1.683,0.092,3.494-0.035,5.479-0.915
			c2.37-1.051,4.359-0.727,6.145-0.105c0.56-0.171,1.184-0.176,1.939,0.231c2.463,1.326,2.968-1.516,5.116-0.063
			c2.04,1.38,1.184-2.302,5.642-0.725v-2.128c-1.069-0.483-2.073-0.715-3.026-0.778c-0.948,0.369-2.042,0.877-3.374,1.484
			c-2.132,0.972-3.294,0.568-4.292-0.047c-0.593,0.075-1.182,0.085-1.771-0.016c-4.421-0.758-4.295,3.347-10.737,0.126
			c-0.742-0.371-1.442-0.605-2.106-0.75C3.586,11.453,1.719,11.836,0,11.938v1.785c0.095-0.01,0.19-0.023,0.286-0.03
			C1.656,13.12,3.421,12.893,5.347,13.926z"/>
		<path style="fill:#0A1A51;" d="M19.089,14.9c-4.674-2.337-7.236,2.594-12.415,0.257C4.13,14.01,1.79,14.406,0,15.009V21h30v-7.179
			C26.846,12.828,23.316,17.014,19.089,14.9z"/>
		<g>
			<path style="fill:#5BB0DF;" d="M4.694,10.397C2.801,9.983,1.228,10.381,0,11.057v0.881C1.719,11.836,3.586,11.453,4.694,10.397z"
				/>
		</g>
		<g>
			<path style="fill:#92E1F1;" d="M0,5.837V8.2c1.001-0.571,2.379-1.104,4.223-1.471C2.365,5.909,0.993,5.725,0,5.837z"/>
		</g>
		<path style="fill:#62CBED;" d="M4.694,10.397c0.146-0.139,0.283-0.286,0.401-0.45c2.084-2.905,4.484,2.337,9.158,0.253
			c2.676-1.193,3.718,0.013,5.055,0.837c2.341-0.295,4.765-1.629,7.667-1.437C28.162,9.139,29.118,8.906,30,8.992V7.846
			c-1.385-0.096-2.053,1.306-7.663,1.66c-4.572,0.288-6.601-1.023-8.949-2.053c-2.748,0.561-3.901,1.905-8.356-0.347
			c-0.283-0.143-0.546-0.26-0.809-0.376C2.379,7.096,1.001,7.629,0,8.2v2.857C1.228,10.381,2.801,9.983,4.694,10.397z"/>
		<path style="fill:#80E6F9;" d="M16.653,7.295c-1.357-0.122-2.39-0.021-3.265,0.157c2.348,1.03,4.377,2.341,8.949,2.053
			c5.61-0.353,6.278-1.755,7.663-1.66V6.686C22.141,2.789,21.874,7.764,16.653,7.295z"/>
	</g>
</g>
</svg>
