<?xml version="1.0" standalone="no"?>
<!DOCTYPE svg PUBLIC "-//W3C//DTD SVG 20010904//EN"
 "http://www.w3.org/TR/2001/REC-SVG-20010904/DTD/svg10.dtd">
<svg version="1.0" xmlns="http://www.w3.org/2000/svg"
 width="790.000000pt" height="1280.000000pt" viewBox="0 0 790.000000 1280.000000"
 preserveAspectRatio="xMidYMid meet">
<metadata>
Created by potrace 1.15, written by Peter Selinger 2001-2017
</metadata>
<g transform="translate(0.000000,1280.000000) scale(0.100000,-0.100000)"
fill="#000000" stroke="none">
<path d="M4538 12781 c-54 -22 -125 -71 -288 -201 -149 -118 -242 -165 -325
-164 -74 0 -121 23 -260 129 -100 75 -185 115 -219 102 -34 -13 -48 -75 -53
-242 -7 -228 -26 -285 -116 -342 -66 -42 -144 -63 -292 -78 -77 -9 -170 -24
-207 -35 l-68 -20 24 -64 c75 -199 87 -377 32 -488 -42 -84 -135 -171 -343
-320 -60 -43 -73 -79 -48 -127 18 -36 75 -79 238 -182 189 -119 297 -229 297
-304 0 -36 -10 -53 -109 -180 -245 -311 -415 -599 -528 -890 -285 -734 -191
-1400 280 -1980 36 -44 131 -149 211 -233 157 -166 209 -240 210 -306 2 -78
-61 -129 -250 -207 -173 -71 -303 -65 -395 18 -74 67 -123 169 -175 362 -69
261 -104 361 -125 361 -6 0 -38 -25 -71 -55 -132 -119 -294 -213 -453 -261
-85 -26 -102 -28 -280 -28 -182 -1 -195 1 -312 31 -130 34 -308 100 -411 152
-55 28 -62 29 -62 13 0 -46 58 -128 182 -259 160 -168 204 -222 235 -291 81
-175 -38 -349 -296 -432 -31 -10 -149 -37 -261 -60 -188 -38 -272 -61 -294
-81 -12 -11 65 -63 137 -92 35 -14 119 -37 187 -52 317 -67 376 -87 418 -140
51 -64 31 -175 -46 -257 -56 -60 -148 -106 -356 -178 -159 -55 -224 -84 -295
-133 l-44 -30 79 -23 c43 -13 173 -40 289 -60 317 -55 375 -78 416 -169 40
-87 16 -202 -86 -405 -30 -60 -55 -113 -55 -116 0 -21 181 19 440 98 255 77
386 108 490 115 83 5 102 3 141 -14 85 -38 100 -130 46 -274 -14 -35 -50 -130
-81 -211 -97 -254 -169 -551 -197 -819 -25 -238 -14 -562 27 -804 172 -995
869 -1863 1859 -2314 404 -184 650 -236 1105 -235 166 0 271 5 360 17 891 124
1545 626 1847 1417 94 248 126 416 127 665 0 207 -15 311 -70 474 -138 414
-425 666 -869 763 -96 21 -430 17 -535 -6 -394 -86 -696 -292 -839 -571 -56
-108 -76 -197 -76 -331 0 -128 12 -154 70 -154 58 0 133 68 262 240 131 175
273 289 423 341 90 31 245 38 326 14 190 -55 349 -204 430 -403 51 -126 59
-176 58 -352 -1 -150 -4 -175 -32 -283 -111 -423 -419 -723 -832 -809 -123
-26 -320 -27 -444 -4 -287 55 -588 226 -752 428 -258 316 -414 618 -490 944
-26 110 -28 135 -28 334 -1 189 2 227 22 318 33 147 66 240 132 377 193 396
544 740 1037 1017 169 94 331 168 609 277 304 119 364 145 551 240 615 311
1000 697 1156 1161 82 243 105 479 71 742 -90 699 -537 1253 -1399 1737 -83
46 -190 107 -240 134 -297 166 -553 345 -696 487 -130 129 -163 188 -163 290
0 59 5 78 48 166 88 184 207 384 228 384 4 0 8 -8 8 -19 0 -44 55 -204 106
-309 44 -92 67 -125 122 -180 156 -157 360 -213 1002 -272 124 -11 243 -22
265 -25 390 -44 477 -71 704 -220 173 -114 294 -155 453 -155 179 0 331 75
426 209 81 115 36 250 -125 371 -649 493 -1060 932 -1277 1367 -94 188 -143
325 -201 561 -20 79 -49 178 -65 220 -60 157 -176 329 -295 441 -161 150 -300
210 -527 227 -157 12 -182 66 -104 230 25 53 46 103 46 110 0 7 -9 18 -20 24
-26 14 -74 2 -258 -65 -340 -124 -392 -104 -351 133 8 44 8 67 1 74 -19 19
-95 19 -144 -1z"/>
</g>
</svg>
